<svg style="position: absolute; width: 0; height: 0; overflow: hidden;" version="1.1" xmlns="http://www.w3.org/2000/svg" xmlns:xlink="http://www.w3.org/1999/xlink">
<defs>
<symbol id="icon-pixelpin-connect" viewBox="0 0 32 32">
<title>pixelpin-connect</title>
<path d="M13.847 1.683c-4.321 0.546-8.826 3.769-10.823 7.739-1.455 2.892-1.604 4.225-1.604 14.338l-0 7.49h1.684c1.979 0 2.423-0.096 3.064-0.659 0.796-0.701 0.756-0.306 0.8-7.894 0.042-7.225 0.065-7.603 0.554-9.074 1.333-4.012 4.674-6.381 8.99-6.377 7.141 0.007 11.436 8.321 7.384 14.294-1.785 2.633-3.862 3.716-7.558 3.941-3.509 0.215-4.115 0.84-4.29 4.434l-0.067 1.359 3.107-0.050c4.985-0.080 6.431-0.454 9.414-2.433 5.68-3.769 7.998-10.734 5.778-17.368-2.274-6.794-8.862-10.701-16.434-9.743zM15.125 12.406c-2.465 0.662-3.736 3.478-2.604 5.768 1.873 3.789 7.6 2.667 7.783-1.525 0.128-2.91-2.409-4.987-5.179-4.243z"></path>
</symbol>
</defs>
</svg>
